Patient4_TMGait_0pt3_01_right_19_EMG.mot
version=1
nRows=13
nColumns=33
inDegrees=no
endheader
time	1LAddLong	2LGlutMax	3LGlutMed	4LIliopsoas	5LSemiMemb	6LBicFemLong	7LRecFem	8LVastMed	9LVastLat	10LGasMed	11LTibAnt	12lTibPost	13LPeroneusLong	14LSol	15LExtDigLong	16LFlexDigLong	17RAddLong	18RGlutMax	19RGlutMed	20RIliopsoas	21RSemiMemb	22RBicFemLong	23RRecFem	24RVastMed	25RVastLat	26RGasMed	27RTibAnt	28RTibPost	29RPeroneusLong	30RSol	31RExtDigLong	32RFlexDigLong
36.555	0.00885	0.059204	0.16495	0.018005	0.021362	0.34027	0.030518	0.021362	-0.43625	0.034943	0.006256	-0.007324	0.31921	0.088501	-0.005341	-0.006256	-0.094604	-0.016174	-0.092621	0.33005	0.052643	0.094757	0.001678	0.04715	0.031281	-0.000916	-0.31769	-0.00351	-0.0354	-0.10452	0.004883	-0.011902
36.556	0.016937	-0.006561	0.044556	0.010223	0.028839	0.29755	-0.016022	0.004272	-0.32516	0.024109	0.048981	-0.004425	-0.19348	0.14999	0.042572	0.004272	-0.052338	-0.00885	-0.064392	0.22919	0.070801	0.092773	0.013275	0.037537	0.018005	0.001831	-0.091858	-0.011139	-0.042419	-0.072784	0.002441	-0.003967
36.557	0.023041	-0.024109	0.099182	-0.021515	0.024872	-0.088348	-0.036469	-0.016479	-0.13565	0.031891	0.041199	-0.004578	-0.00885	0.12756	0.040131	-0.000458	-0.000305	0.010834	0.036469	0.13931	0.080872	0.072784	0.0177	0.037537	0.019684	-0.009766	0.10147	-0.00885	-0.033112	0.013733	0.002289	-0.012817
36.558	0.017242	0.037231	0.067444	-0.039368	0.016937	-0.093689	-0.035248	-0.016327	-0.056305	0.057373	-0.034332	-0.00885	0.45303	0.079651	0.029602	0.007629	0.04364	0.041656	0.070953	0.09491	0.071716	0.046844	0.057068	0.046692	0.002899	-0.011749	-0.03479	-0.011444	-0.082703	-0.031281	0.001984	-0.015869
36.559	0.007172	0.03952	0.001068	-0.038452	0.01236	0.30487	-0.080109	-0.004883	0.007477	0.052948	-0.005646	-0.001373	-0.041199	0.076599	0.043335	0.001068	0.097656	0.074921	0.15518	-0.030212	0.053253	0.016785	0.029602	-0.019684	0	-0.011444	-0.44662	-0.002289	-0.098419	-0.023499	0.004425	-0.00885
36.56	0.007019	-0.009003	-0.17456	0.006256	0.005341	0.17716	-0.006866	-0.009766	-0.023651	0.026245	-0.009155	-0.006866	-0.87936	0.14435	0.090485	0.005341	0.097809	0.027313	0.34012	-0.17929	0.034485	0.019684	0.039825	-0.02655	-0.006409	-0.013275	-0.65369	-0.008698	-0.009766	-0.036774	-0.000305	-0.001984
36.561	0.016937	-0.037842	-0.10056	0.033417	0.006409	0.1532	0.061188	-0.011597	-0.032806	0.039978	-0.001984	-0.001068	-0.79681	0.20294	0.030975	0.014648	0.060577	0.018616	0.215	-0.22553	0.029755	0.012817	0.033112	0.036774	0.015564	-0.010376	0.001068	-0.004272	0.020599	-0.052948	-0.004272	0.000305
36.562	0.019989	0.010681	-0.17761	-0.014648	0.012207	0.12528	0.067139	0.005188	0.003662	0.004425	-0.019379	-0.001221	-0.20859	0.18585	-0.085144	0.010071	0.036926	0.036774	-0.22903	-0.20935	0.007172	0.009003	-0.038147	-0.00946	0.004425	-0.004272	0.26932	-0.002899	0.1384	-0.10239	0	-0.000458
36.563	0.032806	-0.12375	-0.10239	0.000916	0.030518	-0.065308	0.050812	0.041351	0.005188	0.058746	-0.002289	0.00412	0.10391	0.070801	-0.20889	-0.009613	-0.005798	0.059662	-0.020294	-0.23468	0.000916	0.008545	0.009613	-0.017242	0.000153	-0.003357	-0.2272	-0.007477	0.22293	-0.081787	-0.001526	-0.003204
36.564	0.022583	-0.20432	0.23529	-0.005035	0.029602	-0.030212	-0.066223	0.043793	-0.012054	0.075073	-0.011139	-0.006866	-0.28961	0.095062	-0.089874	-0.005341	-0.045013	0.086823	0.14877	-0.1564	0.007172	-0.000153	0.010071	-0.031738	-0.005646	-0.006256	-0.3566	-0.003357	0.17563	-0.029144	0.004425	-0.006561
36.565	0.021667	-0.19119	0.12146	0.019073	0.003357	-0.085144	-0.062714	0.045624	-0.052643	0.035706	-0.005951	-0.007782	-0.56763	0.098114	-0.019531	0.006409	-0.06897	0.049896	0.097046	-0.066376	-0.002289	0.001526	0.007324	-0.016632	-0.01709	-0.002747	-0.00824	-0.004578	0.098419	-0.005493	-0.00061	-0.014954
36.566	0.039215	-0.21912	-0.000305	0.009766	0.008698	-0.13031	-0.1059	0.050354	-0.089722	0.052948	-0.016022	0.006409	-0.11078	0.036316	0.10208	0.002899	-0.093689	0.088196	0.05722	0.007324	0.00885	-0.019684	0.00885	-0.007782	-0.019073	-0.00061	0.2359	-0.002136	-0.14358	-0.083466	0.000153	-0.006714
36.567	0.020294	-0.28412	-0.17822	-0.00473	0.020599	-0.16357	-0.1268	0.037231	-0.086823	0.053558	-0.006561	-0.010529	-0.076599	-0.056152	0.050659	-0.002594	-0.079498	0.069275	0.035706	0.028229	0.01297	-0.005341	-0.000153	0.001068	-0.00885	0.008087	0.3627	-0.004883	-0.50186	-0.1152	-0.003967	-0.015259
